PathFileType	4	(X/Y/Z)	8_coords_data.trc
DataRate	CameraRate	NumFrames	NumMarkers	Units	OrigDataRate	OrigDataStartFrame	OrigNumFrames
30.0	30.0	8	21	m	30.0	50	59
Frame#	Time	THUMB_TIP	THUMB_IP	THUMB_MCP	THUMB_CMC	INDEX_TIP	INDEX_DIP	INDEX_PIP	INDEX_MCP	MIDDLE_TIP	MIDDLE_DIP	MIDDLE_PIP	MIDDLE_MCP	RING_TIP	RING_DIP	RING_PIP	RING_MCP	PINKY_TIP	PINKY_DIP	PINKY_PIP	PINKY_MCP	WRIST
X1	Y1	Z1	X2	Y2	Z2	X3	Y3	Z3	X4	Y4	Z4	X5	Y5	Z5	X6	Y6	Z6	X7	Y7	Z7	X8	Y8	Z8	X9	Y9	Z9	X10	Y10	Z10	X11	Y11	Z11	X12	Y12	Z12	X13	Y13	Z13	X14	Y14	Z14	X15	Y15	Z15	X16	Y16	Z16	X17	Y17	Z17	X18	Y18	Z18	X19	Y19	Z19	X20	Y20	Z20	X21	Y21	Z21
48	1.6333333333333262	0.47565157905475264	0.041177394237849385	-0.15507746979347664	0.4764688704919515	0.0245240356461518	-0.13926615478418614	0.4691357146965114	0.005284191079495737	-0.1159236354871882	0.47031898408698225	-0.020220502861912126	-0.07934494687613095	0.5731322880644086	0.0643924391818087	-0.1427297316832821	0.5588624919929136	0.055042960149486786	-0.13665024470639667	0.5389495634220419	0.0440380987666551	-0.12595547333548732	0.5079388664081046	0.021042226866616276	-0.10797874837606304	0.5980831058189932	0.05763300232480162	-0.12048495055581263	0.5825665042923722	0.049667701857264934	-0.11560754699183243	0.5574103984108165	0.03976023129100936	-0.10472536366978069	0.5211073683444032	0.017340214126686848	-0.091474674655674	0.6030114761148869	0.04243407908708141	-0.10034380681179426	0.5873014055196334	0.03603557540272484	-0.09424029696143559	0.5652760699087547	0.028098222451075572	-0.08575130418554565	0.5314064056097816	0.007079454834490573	-0.07898535398214683	0.6022473749219739	0.018059428183095916	-0.06950732940296678	0.5862866337853088	0.012042689081187663	-0.06807429313408334	0.5663631964658722	0.005600738432823493	-0.06653483341635003	0.5331103762363649	-0.008360340085582285	-0.06700566713113501	0.4622830810018609	-0.023011742144276925	-0.051989820119430985
49	1.6666666666666594	0.4755680941682051	0.04123042729828247	-0.15504139318742916	0.4763959510164434	0.024562603409874983	-0.13924587800545865	0.46908647887718846	0.005309610667382669	-0.11590677160647687	0.4703107847108209	-0.020220809689545427	-0.07934738551173659	0.573007025491604	0.0645204106035075	-0.14277338754326202	0.5587542394182058	0.055150887519269665	-0.13668486339369335	0.5388662583188901	0.04411625572460631	-0.12597435724554779	0.5079018799134618	0.021060460248342294	-0.10799454470697743	0.5980401558503211	0.05761869805148978	-0.12059531015532143	0.582528235399767	0.04966050813472489	-0.1156914813262957	0.5573773169500416	0.03976056164926001	-0.10479047629372215	0.5210825512405219	0.01734936958480726	-0.09150227200039143	0.6029952213284898	0.0424152156824123	-0.10041956332720721	0.5872870885788923	0.03601895547428463	-0.09430871879711569	0.5652647953562032	0.028092589108655863	-0.08580158670388162	0.5313935544171903	0.007083385326379976	-0.07901386045084621	0.6022461132119153	0.018040291810327846	-0.06961301433201914	0.5862850360572875	0.012028581527700255	-0.06816271934762239	0.5663602958009508	0.005596317136307816	-0.06659979915876363	0.5331031160879227	-0.008355524688751226	-0.0670351820062492	0.4622830810018609	-0.023011742144276925	-0.051989820119430985
51	1.7000000000000006	0.47548136544818165	0.04124689816135996	-0.15503173859000718	0.47632191420476777	0.024574848584237696	-0.13924135415245228	0.4690313840946432	0.005311026606202196	-0.11590525907397084	0.47029262928380233	-0.020228499977877235	-0.07935348972645598	0.5728674650385893	0.06467333104238582	-0.1428006184293102	0.5586364539282253	0.05526781056095653	-0.1367166635272658	0.5387747968329473	0.04419553113326652	-0.12599616733050578	0.507849124375291	0.021088692319519375	-0.10801526420865798	0.5979898063811988	0.05758740442156657	-0.1207409300894899	0.5824828462396215	0.04963933224072403	-0.1158051083974466	0.5573377061736966	0.03975335686213827	-0.10487812473867666	0.5210477047378971	0.017365589819719807	-0.09153752491542783	0.6029639280526532	0.042431502058628	-0.10048814194225868	0.5872601057100401	0.03602962911683727	-0.09437209855876212	0.5652431285191192	0.0281091390489418	-0.08584575517728577	0.531373384855082	0.0071017476504736665	-0.07904496075575045	0.6022314842673592	0.018062829789555646	-0.06973390718454126	0.5862744314936554	0.012045961466386035	-0.06826089586113976	0.5663505009296834	0.0056186681296737095	-0.06666750003904293	0.5330942434750203	-0.008336684344982914	-0.06705856067022722	0.4622830810018609	-0.023011742144276925	-0.051989820119430985
52	1.733333333333334	0.4754008634367819	0.04123946770899217	-0.15503580338979384	0.47625353390643965	0.02456694826025385	-0.13924656501989094	0.46898038120650776	0.005295935388158424	-0.11591098461813093	0.470277385725951	-0.0202419358389071	-0.07935931006734787	0.5727399734315788	0.06478400545548307	-0.14285541396177057	0.5585295022354646	0.05534643217484164	-0.13677308554602954	0.538692433495369	0.04424233427074892	-0.1260399803785092	0.5078017820337526	0.02109938898310515	-0.10804531923443456	0.5979453345861448	0.057530336971038654	-0.12090499510876776	0.582443459970901	0.04959266529160056	-0.11593656963154611	0.5573035532273627	0.039724648300580034	-0.10498134806413233	0.5210159832425463	0.01736786955423808	-0.09158229475114919	0.6029304937138992	0.04244864079292021	-0.1005597388412083	0.5872309087974138	0.03603956285044052	-0.09444036359717485	0.565219793762891	0.028122977943329353	-0.08589527861541477	0.5313542940023057	0.007113100189986343	-0.07908104375334908	0.6022183103175848	0.01808167663799809	-0.06984538051201561	0.5862647692692373	0.012060525364452568	-0.06835197321332748	0.5663410782204805	0.005639542336215331	-0.06673039036167336	0.5330856784040529	-0.008318916500591356	-0.06708147575118234	0.4622830810018608	-0.023011742144276925	-0.051989820119430985
53	1.7666666666666675	0.4753377797493651	0.04119875036816023	-0.15505818971899676	0.4762000358881011	0.024530735317859487	-0.139264716743297	0.46893990681050846	0.00525848029103404	-0.11592610684558247	0.47026710384583603	-0.020263611068968346	-0.0793644958219814	0.5726378636930078	0.06482744514193967	-0.1429473484400527	0.5584443600782768	0.05536750682556585	-0.13686014693287218	0.5386278212643966	0.04424291454261664	-0.12611035302898158	0.507766675530471	0.021083451327546965	-0.10808634011345022	0.5979158319682617	0.0574348809151774	-0.12108236695277262	0.582418105034345	0.049508953418730406	-0.11608235363250836	0.557281384661348	0.03966584458544714	-0.10509745275057479	0.5209918942126592	0.017348913215238126	-0.09163731240242447	0.6029001308950968	0.04245887249429742	-0.10062957314000957	0.5872038644845501	0.03604162488576995	-0.09451024687807574	0.5651983201052515	0.028126980179373706	-0.08594903231808267	0.5313390423029364	0.00711124291383991	-0.07912195916103304	0.602211102232852	0.018084736972887705	-0.06993130907031514	0.5862593600197717	0.012062400046979782	-0.06842353643550683	0.5663343877879722	0.005650816290395766	-0.0667806443835671	0.5330786147100811	-0.008307436681195601	-0.06710341670716125	0.4622830810018608	-0.023011742144276925	-0.051989820119430985
54	1.8000000000000007	0.4753033010662634	0.041115363906851	-0.1551034702782111	0.4761706426839214	0.024458047783732784	-0.13929899185933292	0.46891639647629724	0.00519280971631586	-0.11595276059677319	0.47026383311737385	-0.0202960035858204	-0.07936868194297739	0.5725744247444127	0.06477865337624328	-0.14308596656885142	0.5583919714738529	0.05531176271909616	-0.13698383575134093	0.5385895784562812	0.044183485081902174	-0.12621181177220145	0.507750616753791	0.021031778719962757	-0.10813992676695428	0.5979103818972467	0.05728841976538651	-0.1212678943867978	0.582414794413183	0.04937663745494131	-0.11623893135294516	0.5572777214052341	0.039568345656864845	-0.10522373627537907	0.5209799328933042	0.017301423749848333	-0.09170328292018287	0.6028780525475644	0.042454438922128246	-0.10069286591383875	0.5871833422594323	0.03602868320323355	-0.09457847858453944	0.5651822342913196	0.028114019262690304	-0.08600588726780702	0.5313303902732057	0.007089970536964141	-0.07916754933000475	0.6022144035629835	0.01805992539103951	-0.0699755818456585	0.5862615390961292	0.012041721544676975	-0.06846318713335509	0.5663328044227629	0.005644376028486886	-0.06681045495146667	0.5330742503159996	-0.008307462558741263	-0.06712387122967006	0.4622830810018609	-0.023011742144276925	-0.051989820119430985
55	1.833333333333334	0.4753085941913766	0.040979915185625715	-0.15517614463361024	0.47617455913099715	0.024340720885571043	-0.1393525130097264	0.46891626991554636	0.005093079753708651	-0.11599302781582889	0.47026960432251785	-0.02034155561929718	-0.07937147938563359	0.5725627754275405	0.06461254764040125	-0.14328069681395075	0.5583831516578797	0.05515985594273998	-0.13715004518301943	0.5385862227137749	0.0440501918212885	-0.12634880449083047	0.5077603649322485	0.020935269971100956	-0.10820760899844808	0.5979380160161238	0.0570783354002094	-0.12145638340748906	0.5824414848152558	0.04918415498993556	-0.11640272766233069	0.5572990489985301	0.039423541715779	-0.10535746172102388	0.5209845513091738	0.017218109427801664	-0.09178086584894414	0.6028694496071048	0.04242758386268186	-0.10074483378364764	0.5871736957540304	0.03599360731966966	-0.09464178070935149	0.5651750462441535	0.02807697107502677	-0.08606470257565138	0.5313310830273896	0.007043075477666916	-0.07921764307673447	0.6022327074328833	0.017995134537266755	-0.06996207941822541	0.5862746059623307	0.011988611752797751	-0.06845852313554046	0.5663386788759727	0.005612103365386978	-0.06681202048060775	0.5330737794833139	-0.008324209584367193	-0.06714232452661029	0.4622830810018608	-0.023011742144276925	-0.051989820119430985
56	1.866666666666667	0.47536478571592633	0.04078298122788082	-0.1552805811657051	0.47622095260763664	0.02417057648992832	-0.1394282946720793	0.4689459104584158	0.004953458149979051	-0.11604889937546287	0.4702864049801241	-0.020402647835515597	-0.07937246329329106	0.5726156655888034	0.06430385525176352	-0.14354073421105767	0.5584284582737546	0.054892313639113344	-0.1373644867198066	0.5386260850628212	0.04382907745675585	-0.12652563745485781	0.5078025700064379	0.020784825837823484	-0.10829079495780702	0.5980076523761001	0.05679200686285896	-0.12164255620434698	0.5825060195695777	0.04891994262621474	-0.11657008294311715	0.5573517758792004	0.03922281160517643	-0.10549582340462278	0.5210101169026552	0.01709169308798897	-0.0918706504878959	0.6028794585185322	0.0423705530847594	-0.10078067891297163	0.5871792353054708	0.035929269997762026	-0.09469685912165582	0.5651802279987224	0.028008717740513334	-0.0861243152484623	0.5313438282546217	0.006964352355286474	-0.07927204760260259	0.6022703320611603	0.017878187207875595	-0.06987463958523443	0.5863017332722955	0.011893143223540847	-0.06839710744485775	0.5663542797889276	0.005545854800347083	-0.06677752472030613	0.5330783806823753	-0.008362884602167608	-0.06715825806989698	0.4622830810018609	-0.023011742144276925	-0.051989820119430985
